HIERARCHY
ROOT Hips
{
    OFFSET   0.000000   0.000000   0.000000
    CHANNELS 6 Xposition Yposition Zposition Zrotation Xrotation Yrotation
    JOINT Chest
    {
        OFFSET   0.000000   8.007240   0.000000
        CHANNELS 3 Zrotation Xrotation Yrotation
        JOINT Chest2
        {
            OFFSET   0.000000  22.077100   0.000000
            CHANNELS 3 Zrotation Xrotation Yrotation
            JOINT Neck
            {
                OFFSET   0.000000  23.254800   0.000000
                CHANNELS 3 Zrotation Xrotation Yrotation
                JOINT Head
                {
                    OFFSET   0.000000  14.370000   1.956600
                    CHANNELS 3 Zrotation Xrotation Yrotation
                    End Site
                    {
                        OFFSET   0.000000  19.566000   0.000000
                    }
                }
            }
            JOINT LeftCollar
            {
                OFFSET   3.911900  19.017000  -0.467064
                CHANNELS 3 Zrotation Xrotation Yrotation
                JOINT LeftShoulder
                {
                    OFFSET  10.383700   0.000000   0.000000
                    CHANNELS 3 Zrotation Xrotation Yrotation
                    JOINT LeftElbow
                    {
                        OFFSET  26.662100   0.001476   0.000517
                        CHANNELS 3 Zrotation Xrotation Yrotation
                        JOINT LeftWrist
                        {
                            OFFSET  28.869000  -0.000025  -0.000106
                            CHANNELS 3 Zrotation Xrotation Yrotation
                            JOINT LeftFinger0
                            {
                                OFFSET   2.044660  -2.323460   3.252850
                                CHANNELS 3 Zrotation Xrotation Yrotation
                                JOINT LeftFinger01
                                {
                                    OFFSET   3.088130   0.000000   0.000000
                                    CHANNELS 3 Zrotation Xrotation Yrotation
                                    JOINT LeftFinger02
                                    {
                                        OFFSET   2.639460   0.000000   0.000000
                                        CHANNELS 3 Zrotation Xrotation Yrotation
                                        End Site
                                        {
                                            OFFSET   2.582190   0.000000   0.000000
                                        }
                                    }
                                }
                            }
                            JOINT LeftFinger1
                            {
                                OFFSET   8.364480   0.000000   3.252850
                                CHANNELS 3 Zrotation Xrotation Yrotation
                                JOINT LeftFinger11
                                {
                                    OFFSET   4.646930   0.000000   0.000000
                                    CHANNELS 3 Zrotation Xrotation Yrotation
                                    JOINT LeftFinger12
                                    {
                                        OFFSET   2.323460   0.000000   0.000000
                                        CHANNELS 3 Zrotation Xrotation Yrotation
                                        End Site
                                        {
                                            OFFSET   2.273050   0.000000   0.000000
                                        }
                                    }
                                }
                            }
                            JOINT LeftFinger2
                            {
                                OFFSET   8.364490   0.000015   1.078090
                                CHANNELS 3 Zrotation Xrotation Yrotation
                                JOINT LeftFinger21
                                {
                                    OFFSET   5.111620   0.000000   0.000000
                                    CHANNELS 3 Zrotation Xrotation Yrotation
                                    JOINT LeftFinger22
                                    {
                                        OFFSET   2.788160   0.000016   0.000000
                                        CHANNELS 3 Zrotation Xrotation Yrotation
                                        End Site
                                        {
                                            OFFSET   2.727660   0.000000   0.000000
                                        }
                                    }
                                }
                            }
                            JOINT LeftFinger3
                            {
                                OFFSET   7.899780   0.000017  -1.078090
                                CHANNELS 3 Zrotation Xrotation Yrotation
                                JOINT LeftFinger31
                                {
                                    OFFSET   4.646930   0.000000   0.000000
                                    CHANNELS 3 Zrotation Xrotation Yrotation
                                    JOINT LeftFinger32
                                    {
                                        OFFSET   2.323470   0.000000   0.000000
                                        CHANNELS 3 Zrotation Xrotation Yrotation
                                        End Site
                                        {
                                            OFFSET   2.273050   0.000000   0.000000
                                        }
                                    }
                                }
                            }
                            JOINT LeftFinger4
                            {
                                OFFSET   7.435090   0.000000  -3.252850
                                CHANNELS 3 Zrotation Xrotation Yrotation
                                JOINT LeftFinger41
                                {
                                    OFFSET   3.717550   0.000000   0.000000
                                    CHANNELS 3 Zrotation Xrotation Yrotation
                                    JOINT LeftFinger42
                                    {
                                        OFFSET   1.858770   0.000000   0.000000
                                        CHANNELS 3 Zrotation Xrotation Yrotation
                                        End Site
                                        {
                                            OFFSET   1.818440   0.000000   0.000000
                                        }
                                    }
                                }
                            }
                        }
                    }
                }
            }
            JOINT RightCollar
            {
                OFFSET  -3.911900  19.017000  -0.467063
                CHANNELS 3 Zrotation Xrotation Yrotation
                JOINT RightShoulder
                {
                    OFFSET -10.383700   0.000019   0.000000
                    CHANNELS 3 Zrotation Xrotation Yrotation
                    JOINT RightElbow
                    {
                        OFFSET -26.662100   0.001175   0.000102
                        CHANNELS 3 Zrotation Xrotation Yrotation
                        JOINT RightWrist
                        {
                            OFFSET -28.869000   0.000016  -0.000079
                            CHANNELS 3 Zrotation Xrotation Yrotation
                            JOINT RightFinger0
                            {
                                OFFSET  -2.044660  -2.323490   3.252850
                                CHANNELS 3 Zrotation Xrotation Yrotation
                                JOINT RightFinger01
                                {
                                    OFFSET  -3.088140   0.000000   0.000000
                                    CHANNELS 3 Zrotation Xrotation Yrotation
                                    JOINT RightFinger02
                                    {
                                        OFFSET  -2.639460   0.000000   0.000000
                                        CHANNELS 3 Zrotation Xrotation Yrotation
                                        End Site
                                        {
                                            OFFSET  -2.582190   0.000000   0.000000
                                        }
                                    }
                                }
                            }
                            JOINT RightFinger1
                            {
                                OFFSET  -8.364480   0.000000   3.252850
                                CHANNELS 3 Zrotation Xrotation Yrotation
                                JOINT RightFinger11
                                {
                                    OFFSET  -4.646930   0.000000   0.000000
                                    CHANNELS 3 Zrotation Xrotation Yrotation
                                    JOINT RightFinger12
                                    {
                                        OFFSET  -2.323470   0.000000   0.000000
                                        CHANNELS 3 Zrotation Xrotation Yrotation
                                        End Site
                                        {
                                            OFFSET  -2.273050   0.000000   0.000000
                                        }
                                    }
                                }
                            }
                            JOINT RightFinger2
                            {
                                OFFSET  -8.364480   0.000000   1.078090
                                CHANNELS 3 Zrotation Xrotation Yrotation
                                JOINT RightFinger21
                                {
                                    OFFSET  -5.111620   0.000000   0.000000
                                    CHANNELS 3 Zrotation Xrotation Yrotation
                                    JOINT RightFinger22
                                    {
                                        OFFSET  -2.788160   0.000000   0.000000
                                        CHANNELS 3 Zrotation Xrotation Yrotation
                                        End Site
                                        {
                                            OFFSET  -2.727660   0.000000   0.000000
                                        }
                                    }
                                }
                            }
                            JOINT RightFinger3
                            {
                                OFFSET  -7.899780   0.000000  -1.078090
                                CHANNELS 3 Zrotation Xrotation Yrotation
                                JOINT RightFinger31
                                {
                                    OFFSET  -4.646930   0.000000   0.000000
                                    CHANNELS 3 Zrotation Xrotation Yrotation
                                    JOINT RightFinger32
                                    {
                                        OFFSET  -2.323470   0.000000   0.000000
                                        CHANNELS 3 Zrotation Xrotation Yrotation
                                        End Site
                                        {
                                            OFFSET  -2.273050   0.000000   0.000000
                                        }
                                    }
                                }
                            }
                            JOINT RightFinger4
                            {
                                OFFSET  -7.435090   0.000000  -3.252850
                                CHANNELS 3 Zrotation Xrotation Yrotation
                                JOINT RightFinger41
                                {
                                    OFFSET  -3.717550   0.000000   0.000000
                                    CHANNELS 3 Zrotation Xrotation Yrotation
                                    JOINT RightFinger42
                                    {
                                        OFFSET  -1.858770   0.000000   0.000000
                                        CHANNELS 3 Zrotation Xrotation Yrotation
                                        End Site
                                        {
                                            OFFSET  -1.818440   0.000000   0.000000
                                        }
                                    }
                                }
                            }
                        }
                    }
                }
            }
        }
    }
    JOINT LeftHip
    {
        OFFSET   9.783040   0.000000   0.000000
        CHANNELS 3 Zrotation Xrotation Yrotation
        JOINT LeftKnee
        {
            OFFSET   0.000032 -41.789100  -0.002222
            CHANNELS 3 Zrotation Xrotation Yrotation
            JOINT LeftAnkle
            {
                OFFSET   0.000087 -41.133200  -0.000135
                CHANNELS 3 Zrotation Xrotation Yrotation
                JOINT LeftToe
                {
                    OFFSET   0.000000  -6.358960  14.674500
                    CHANNELS 3 Zrotation Xrotation Yrotation
                    End Site
                    {
                        OFFSET   0.000000   0.000000   3.913200
                    }
                }
            }
        }
    }
    JOINT RightHip
    {
        OFFSET  -9.783040   0.000000   0.000000
        CHANNELS 3 Zrotation Xrotation Yrotation
        JOINT RightKnee
        {
            OFFSET   0.000047 -41.789100  -0.000896
            CHANNELS 3 Zrotation Xrotation Yrotation
            JOINT RightAnkle
            {
                OFFSET  -0.000117 -41.133300  -0.000248
                CHANNELS 3 Zrotation Xrotation Yrotation
                JOINT RightToe
                {
                    OFFSET   0.000000  -6.358970  14.674500
                    CHANNELS 3 Zrotation Xrotation Yrotation
                    End Site
                    {
                        OFFSET   0.000000   0.000000   3.913200
                    }
                }
            }
        }
    }
}
MOTION
Frames: 4
Frame Time:   0.016667
 -2.202060  89.551800  -0.364858  -2.134960  -2.285520   3.567470   1.667300   2.626470  -1.162490   3.392960   5.217390  -2.404830  -0.262785   0.335272  -0.000863  -0.419099   0.689083   6.175940  -7.836950   3.507330  -2.010360 -66.841500  12.618900  -8.038830  -2.151490 -12.167100  -8.372410  -1.024070  -5.252180   6.465850  41.848700  29.762700 -68.699500  -9.949900   0.002272   0.003097   0.025059   0.002414   0.004707 -27.269300   4.128400  -7.950760 -22.546100   0.003938   0.011488 -15.782200   0.002865   0.005181 -27.309400   0.786059  -1.521340 -28.397500   0.005821   0.000128 -18.912800   0.000292   0.000087 -26.192900  -2.368140   4.801580 -26.299600   0.002287   0.002618 -17.515500   0.000290   0.001769 -25.839200  -2.874560   5.912390 -38.981500   0.000325  -0.005773 -25.961700   0.000000  -0.003414   6.843040  -0.041456  11.280400  68.381100   7.616990   2.459780  -0.159613 -11.107900   7.576360  -9.254550 -14.713400   2.957990 -50.924500  40.945800  82.531100  12.251900   0.005331  -0.004008   1.125930   0.003202  -0.002850  27.202000   6.035380  11.561400  22.756500   0.003228  -0.001027  15.929600   0.000515  -0.005190  27.138800   3.734270   7.241270  28.610100   0.014040   0.000162  19.054300   0.000000   0.000104  27.588100   1.333300   2.550530  29.757200   0.005998   0.006340  19.818300  -0.003016   0.002230  29.566600  -1.047210  -1.845190  44.375200  -0.004029  -0.007648  29.553900   0.002123  -0.001104   3.044760   4.915210   4.567570   1.013340   0.278337   6.835910  -2.074370  -2.310760  -0.475441   0.000000   0.000000   0.000000   1.554520  -0.168844  -4.708430   1.854210   4.798620  -6.889970  -4.082120  -1.924660  -2.965710  -0.000000   0.000000   0.000000
 -2.208590  89.551800  -0.359893  -2.135480  -2.285400   3.553940   1.667030   2.629440  -1.162560   3.392460   5.223320  -2.405090  -0.253553   0.336498  -0.000879  -0.409613   0.689683   6.166050  -7.837110   3.504630  -2.008890 -66.838600  12.655200  -8.059060  -2.150370 -12.182600  -8.355640  -1.035850  -5.241770   6.428100  41.863200  29.775200 -68.699700  -9.863750   0.002260   0.003094   0.068139   0.002405   0.004707 -27.253200   4.137610  -7.973290 -22.534700   0.003940   0.011487 -15.774300   0.002864   0.005181 -27.308300   0.798631  -1.545880 -28.384500   0.005821   0.000125 -18.904100   0.000292   0.000080 -26.190200  -2.356650   4.779160 -26.292600   0.002286   0.002623 -17.510900   0.000290   0.001772 -25.843100  -2.863050   5.888010 -38.984400   0.000328  -0.005769 -25.963600   0.000000  -0.003412   6.844300  -0.047540  11.286900  68.388900   7.636310   2.465330  -0.151595 -11.121200   7.557330  -9.244740 -14.732200   2.979410 -50.905000  40.940000  82.529600  12.272900   0.005336  -0.003988   1.136430   0.003193  -0.002838  27.220500   6.039020  11.562000  22.772100   0.003231  -0.001018  15.940500   0.000514  -0.005185  27.143500   3.736590   7.244220  28.634200   0.014043   0.000171  19.070400   0.000000   0.000111  27.588500   1.327660   2.539380  29.773100   0.005991   0.006343  19.828900  -0.003017   0.002236  29.571400  -1.053430  -1.855740  44.382400  -0.004025  -0.007643  29.558700   0.002125  -0.001095   3.048390   4.942800   4.568070   1.013430   0.233315   6.847330  -2.072090  -2.289220  -0.471582  -0.000000   0.000000   0.000000   1.555900  -0.156291  -4.699160   1.860400   4.776120  -6.903900  -4.082040  -1.915760  -2.945690  -0.000000   0.000000   0.000000
 -2.219230  89.551800  -0.351583  -2.136330  -2.285300   3.531280   1.666810   2.635130  -1.162630   3.392180   5.234700  -2.405360  -0.242446   0.339131  -0.000902  -0.398362   0.691946   6.156160  -7.837660   3.497320  -2.003570 -66.840300  12.708000  -8.095440  -2.147910 -12.198100  -8.332760  -1.049410  -5.231550   6.370730  41.887800  29.787600 -68.699900  -9.747130   0.002244   0.003079   0.126450   0.002391   0.004706 -27.234100   4.152750  -8.008930 -22.520400   0.003942   0.011483 -15.764300   0.002863   0.005181 -27.306600   0.819916  -1.587310 -28.371400   0.005823   0.000106 -18.895400   0.000290   0.000072 -26.188800  -2.336870   4.739270 -26.285600   0.002282   0.002637 -17.506200   0.000288   0.001781 -25.858200  -2.840200   5.837240 -39.004600   0.000334  -0.005761 -25.977000   0.000000  -0.003409   6.847900  -0.065304  11.300800  68.400700   7.671560   2.475930  -0.136501 -11.145200   7.522960  -9.229230 -14.751000   3.014050 -50.859000  40.934200  82.528100  12.293900   0.005341  -0.003949   1.146930   0.003166  -0.002813  27.247500   6.049690  11.565800  22.795200   0.003235  -0.000992  15.956700   0.000514  -0.005176  27.149300   3.744410   7.257400  28.664300   0.014047   0.000197  19.090400   0.000000   0.000129  27.588800   1.322010   2.528220  29.789000   0.005979   0.006354  19.839500  -0.003023   0.002254  29.577500  -1.059640  -1.866280  44.392200  -0.004014  -0.007631  29.565200   0.002130  -0.001072   3.055680   4.981870   4.568660   1.011600   0.176940   6.864990  -2.069720  -2.267670  -0.465369  -0.000000   0.000000  -0.000000   1.558080  -0.133962  -4.685310   1.870570   4.738830  -6.925270  -4.083170  -1.902800  -2.912670   0.000000   0.000000   0.000000
 -2.227200  89.551800  -0.344952  -2.136980  -2.285380   3.512390   1.667850   2.641350  -1.162100   3.394440   5.247140  -2.404590  -0.240258   0.342254  -0.000910  -0.396505   0.695694   6.156700  -7.840240   3.488330  -1.989670 -66.856200  12.737700  -8.139760  -2.145960 -12.195800  -8.325510  -1.030160  -5.238370   6.339540  41.885800  29.773900 -68.681200  -9.711420   0.002241   0.003035   0.144293   0.002387   0.004703 -27.229700   4.163080  -8.031540 -22.516900   0.003939   0.011476 -15.761900   0.002861   0.005181 -27.308700   0.838404  -1.623090 -28.373900   0.005827   0.000045 -18.897100   0.000279   0.000072 -26.199300  -2.318750   4.700330 -26.294100   0.002277   0.002658 -17.511800   0.000287   0.001795 -25.892500  -2.808500   5.767280 -39.052000   0.000341  -0.005751 -26.008600  -0.000051  -0.003405   6.853900  -0.095762  11.317800  68.407700   7.703970   2.485820  -0.118276 -11.174100   7.488400  -9.217620 -14.728500   3.040970 -50.835500  40.948600  82.559300  12.267600   0.005332  -0.003909   1.133780   0.003120  -0.002785  27.259900   6.069910  11.594500  22.808500   0.003236  -0.000951  15.965900   0.000514  -0.005165  27.148800   3.760730   7.288800  28.670600   0.014052   0.000243  19.094600   0.000000   0.000156  27.588600   1.329290   2.542170  29.788800   0.005968   0.006381  19.838100  -0.003042   0.002284  29.579100  -1.052710  -1.854020  44.394300  -0.003999  -0.007611  29.566700   0.002138  -0.001038   3.064630   4.996570   4.568760   1.006390   0.165093   6.875170  -2.070160  -2.269900  -0.460497   0.000000   0.000000   0.000000   1.559300  -0.111634  -4.676310   1.878830   4.707230  -6.938650  -4.086910  -1.896450  -2.886710   0.000000   0.000000  -0.000000
